<svg xmlns="http://www.w3.org/2000/svg" viewBox="0 0 350 230">
  <style>
    .st0{fill:#EEEEEF;} .st1{fill:none;stroke:#C8C9CA;stroke-linecap:round;stroke-linejoin:round;stroke-miterlimit:10;stroke-dasharray:0,4;} .st2{fill:#333;} .st3{fill:#D23F5D;}
  </style>
  <path class="st0" d="M24 21.8h317.9v186.6H24z"/>
  <path class="st1" d="M25.9 183.4h316M25.9 162h316m-316-21.4h316m-316-21.5h316m-316-21.4h316m-316-21.4h316m-316-21.4h316m-316-21.5h316"/>
  <path class="st2" d="M14.2 182.9h-1.8v1.5c.2-.3.5-.4.8-.4.7 0 1.2.6 1.2 1.4 0 .9-.6 1.5-1.3 1.5-.6 0-1.1-.3-1.2-.9l.5-.2c.1.4.4.6.8.6.5 0 .8-.4.8-1.1 0-.6-.3-1-.8-1-.3 0-.6.2-.7.6l-.4-.1.1-2.4h2.2v.5zm3.6 1.7c0 1.6-.5 2.3-1.3 2.3-.9 0-1.3-.7-1.3-2.3 0-1.6.5-2.2 1.3-2.2s1.3.6 1.3 2.2zm-2.1 0c0 1.3.3 1.9.8 1.9s.8-.5.8-1.9c0-1.3-.3-1.8-.8-1.8-.6 0-.8.4-.8 1.8zm5.4 0c0 1.6-.5 2.3-1.3 2.3s-1.3-.7-1.3-2.3c0-1.6.5-2.2 1.3-2.2.9 0 1.3.6 1.3 2.2zm-2.1 0c0 1.3.3 1.9.8 1.9s.8-.5.8-1.9c0-1.3-.3-1.8-.8-1.8s-.8.4-.8 1.8zm2.1 21.5c0 1.6-.5 2.3-1.3 2.3s-1.3-.7-1.3-2.3c0-1.6.5-2.2 1.3-2.2.9 0 1.3.6 1.3 2.2zm-2.1 0c0 1.3.3 1.9.8 1.9s.8-.5.8-1.9c0-1.3-.3-1.8-.8-1.8s-.8.4-.8 1.8zM8.9 164.9h.8v.4H7.6v-.4h.9v-3.5c-.2.2-.5.3-.9.4l-.1-.4c.4-.1.7-.3 1-.5h.4v4zm2.5.4l-.3.8h-.3l.3-.8h-.3v-.6h.7v.6zm3.4-2.2c0 1.6-.5 2.3-1.3 2.3s-1.3-.7-1.3-2.3c0-1.6.5-2.2 1.3-2.2s1.3.6 1.3 2.2zm-2.1 0c0 1.3.3 1.9.8 1.9s.8-.5.8-1.9c0-1.3-.3-1.8-.8-1.8s-.8.4-.8 1.8zm5.4 0c0 1.6-.5 2.3-1.3 2.3-.9 0-1.3-.7-1.3-2.3 0-1.6.5-2.2 1.3-2.2.9 0 1.3.6 1.3 2.2zm-2.1 0c0 1.3.3 1.9.8 1.9s.8-.5.8-1.9c0-1.3-.3-1.8-.8-1.8s-.8.4-.8 1.8zm5.5 0c0 1.6-.5 2.3-1.3 2.3s-1.3-.7-1.3-2.3c0-1.6.5-2.2 1.3-2.2s1.3.6 1.3 2.2zm-2.2 0c0 1.3.3 1.9.8 1.9s.8-.5.8-1.9c0-1.3-.3-1.8-.8-1.8s-.8.4-.8 1.8zM8.6 143.4h.8v.4H7.2v-.4h.9v-3.5c-.2.2-.5.3-.9.4l-.1-.4c.4-.1.7-.3 1-.5h.4v4zm2.4.4l-.3.8h-.3l.3-.8h-.3v-.6h.6v.6zm3.2-4h-1.8v1.5c.2-.3.5-.4.8-.4.7 0 1.2.6 1.2 1.4 0 .9-.6 1.5-1.3 1.5-.6 0-1.1-.3-1.2-.9l.5-.2c.1.4.4.6.8.6.5 0 .8-.4.8-1.1 0-.6-.3-1-.8-1-.3 0-.6.2-.7.6l-.4-.1.1-2.4h2.2v.5zm3.6 1.8c0 1.6-.5 2.3-1.3 2.3-.9 0-1.3-.7-1.3-2.3 0-1.6.5-2.2 1.3-2.2s1.3.6 1.3 2.2zm-2.1 0c0 1.3.3 1.9.8 1.9s.8-.5.8-1.9c0-1.3-.3-1.8-.8-1.8-.6 0-.8.4-.8 1.8zm5.4 0c0 1.6-.5 2.3-1.3 2.3s-1.3-.7-1.3-2.3c0-1.6.5-2.2 1.3-2.2.9 0 1.3.6 1.3 2.2zm-2.1 0c0 1.3.3 1.9.8 1.9s.8-.5.8-1.9c0-1.3-.3-1.8-.8-1.8s-.8.4-.8 1.8zM7 119c.1-.8.6-1.2 1.3-1.2.7 0 1.2.4 1.2 1.1 0 .5-.2.8-.9 1.5-.6.6-1 1-1.2 1.4h2.1v.4H7v-.4c.2-.6.6-1.1 1.3-1.7.6-.6.8-.8.8-1.2 0-.4-.3-.7-.7-.7-.4 0-.7.3-.8.9L7 119zm4 3.3l-.3.8h-.3l.3-.8h-.3v-.6h.6v.6zm3.5-2.2c0 1.6-.5 2.3-1.3 2.3s-1.3-.7-1.3-2.3c0-1.6.5-2.2 1.3-2.2s1.3.6 1.3 2.2zm-2.2 0c0 1.3.3 1.9.8 1.9s.8-.5.8-1.9c0-1.3-.3-1.8-.8-1.8s-.8.4-.8 1.8zm5.5 0c0 1.6-.5 2.3-1.3 2.3-.9 0-1.3-.7-1.3-2.3 0-1.6.5-2.2 1.3-2.2s1.3.6 1.3 2.2zm-2.1 0c0 1.3.3 1.9.8 1.9s.8-.5.8-1.9c0-1.3-.3-1.8-.8-1.8-.6 0-.8.4-.8 1.8zm5.4 0c0 1.6-.5 2.3-1.3 2.3s-1.3-.7-1.3-2.3c0-1.6.5-2.2 1.3-2.2.9 0 1.3.6 1.3 2.2zm-2.1 0c0 1.3.3 1.9.8 1.9s.8-.5.8-1.9c0-1.3-.3-1.8-.8-1.8s-.8.4-.8 1.8zM7 97.5c.1-.8.6-1.2 1.3-1.2.7 0 1.2.4 1.2 1.1 0 .5-.2.8-.9 1.5-.6.6-1 1-1.2 1.4h2.1v.4H7v-.4c.2-.6.6-1.1 1.3-1.7.6-.5.7-.7.7-1.1 0-.4-.3-.7-.7-.7-.4 0-.7.3-.8.9l-.5-.2zm4 3.3l-.3.8h-.3l.3-.8h-.3v-.6h.6v.6zm3.2-4h-1.8v1.5c.2-.3.5-.4.8-.4.7 0 1.2.6 1.2 1.4 0 .9-.6 1.5-1.3 1.5-.6 0-1.1-.3-1.2-.9l.5-.2c.1.4.4.6.8.6.5 0 .8-.4.8-1.1 0-.6-.3-1-.8-1-.3 0-.6.2-.7.6l-.5.1.1-2.4h2.2v.3zm3.6 1.8c0 1.6-.5 2.3-1.3 2.3-.9 0-1.3-.7-1.3-2.3 0-1.6.5-2.2 1.3-2.2s1.3.6 1.3 2.2zm-2.1 0c0 1.3.3 1.9.8 1.9s.8-.5.8-1.9c0-1.3-.3-1.8-.8-1.8-.6 0-.8.4-.8 1.8zm5.4 0c0 1.6-.5 2.3-1.3 2.3s-1.3-.7-1.3-2.3c0-1.6.5-2.2 1.3-2.2.9 0 1.3.6 1.3 2.2zm-2.1 0c0 1.3.3 1.9.8 1.9s.8-.5.8-1.9c0-1.3-.3-1.8-.8-1.8s-.8.4-.8 1.8zM7 75.7c.2-.6.7-.9 1.3-.9.7 0 1.2.4 1.2 1.1 0 .5-.3.9-.8 1v.1c.6.1.9.5.9 1.1 0 .8-.5 1.3-1.3 1.3-.7 0-1.1-.3-1.3-.9l.5-.2c.2.5.4.6.9.6s.8-.3.8-.9c0-.6-.3-.9-1-.9h-.5v-.4H8c.6 0 .9-.3.9-.8s-.3-.7-.7-.7c-.4 0-.7.2-.8.6l-.4-.1zm4 3.6l-.3.8h-.3l.3-.8h-.3v-.6h.6v.6zm3.5-2.2c0 1.6-.5 2.3-1.3 2.3s-1.3-.7-1.3-2.3c0-1.6.5-2.2 1.3-2.2s1.3.6 1.3 2.2zm-2.2 0c0 1.3.3 1.9.8 1.9s.8-.5.8-1.9c0-1.3-.3-1.8-.8-1.8s-.8.4-.8 1.8zm5.5 0c0 1.6-.5 2.3-1.3 2.3-.9 0-1.3-.7-1.3-2.3 0-1.6.5-2.2 1.3-2.2s1.3.6 1.3 2.2zm-2.1 0c0 1.3.3 1.9.8 1.9s.8-.5.8-1.9c0-1.3-.3-1.8-.8-1.8-.6 0-.8.4-.8 1.8zm5.4 0c0 1.6-.5 2.3-1.3 2.3s-1.3-.7-1.3-2.3c0-1.6.5-2.2 1.3-2.2.9 0 1.3.6 1.3 2.2zm-2.1 0c0 1.3.3 1.9.8 1.9s.8-.5.8-1.9c0-1.3-.3-1.8-.8-1.8s-.8.4-.8 1.8zM7 53.4c.2-.6.7-.9 1.3-.9.7 0 1.2.4 1.2 1.1 0 .5-.3.9-.8 1v.1c.6.1.9.5.9 1.1 0 .7-.6 1.2-1.4 1.2-.7 0-1.1-.3-1.3-.9l.5-.2c.2.5.4.6.9.6s.8-.3.8-.9c0-.6-.3-.9-1-.9h-.4v-.4H8c.6 0 .9-.3.9-.8s-.3-.7-.7-.7c-.4 0-.7.2-.8.6H7zm4 3.5l-.3.8h-.3l.3-.8h-.3v-.6h.6v.6zm3.2-3.9h-1.8v1.5c.2-.3.5-.4.8-.4.7 0 1.2.6 1.2 1.4 0 .9-.6 1.5-1.3 1.5-.6 0-1.1-.3-1.2-.9l.5-.2c.1.4.4.6.8.6.5 0 .8-.4.8-1.1 0-.6-.3-1-.8-1-.3 0-.6.2-.7.6H12l.1-2.4h2.2v.4zm3.6 1.7c0 1.6-.5 2.3-1.3 2.3-.9 0-1.3-.7-1.3-2.3 0-1.6.5-2.2 1.3-2.2s1.3.6 1.3 2.2zm-2.1 0c0 1.3.3 1.9.8 1.9s.8-.5.8-1.9c0-1.3-.3-1.8-.8-1.8-.6 0-.8.5-.8 1.8zm5.4 0c0 1.6-.5 2.3-1.3 2.3s-1.3-.7-1.3-2.3c0-1.6.5-2.2 1.3-2.2.9 0 1.3.6 1.3 2.2zm-2.1 0c0 1.3.3 1.9.8 1.9s.8-.5.8-1.9c0-1.3-.3-1.8-.8-1.8s-.8.5-.8 1.8zm-10-21h.6v.4H9v1h-.4v-1H6.9v-.4l1.5-3H9v3zm-.4-1.5v-1.1h-.1c-.1.3-.3.6-.4.9l-.8 1.6h1.3v-1.4zm2.4 3l-.3.8h-.3l.3-.8h-.3v-.6h.6v.6zm3.5-2.2c0 1.6-.5 2.3-1.3 2.3s-1.3-.7-1.3-2.3c0-1.6.5-2.2 1.3-2.2.8-.1 1.3.6 1.3 2.2zm-2.2 0c0 1.3.3 1.9.8 1.9s.8-.5.8-1.9c0-1.3-.3-1.8-.8-1.8-.5-.1-.8.4-.8 1.8zm5.5 0c0 1.6-.5 2.3-1.3 2.3-.9 0-1.3-.7-1.3-2.3 0-1.6.5-2.2 1.3-2.2.8-.1 1.3.6 1.3 2.2zm-2.1 0c0 1.3.3 1.9.8 1.9s.8-.5.8-1.9c0-1.3-.3-1.8-.8-1.8-.6-.1-.8.4-.8 1.8zm5.4 0c0 1.6-.5 2.3-1.3 2.3s-1.3-.7-1.3-2.3c0-1.6.5-2.2 1.3-2.2.9-.1 1.3.6 1.3 2.2zM19 33c0 1.3.3 1.9.8 1.9s.8-.5.8-1.9c0-1.3-.3-1.8-.8-1.8-.5-.1-.8.4-.8 1.8zM9.3 9.1c-1 .8-1.3 1.7-1.3 2.7 0 1 .3 1.9 1.3 2.7l-.1.2c-1.1-.9-1.6-1.8-1.6-2.9 0-1.2.4-2.1 1.6-2.9l.1.2zm5.9.8h-2.4c-.1.3-.2.7-.4.9h2.1v3.5h-.3V14h-3v.4h-.3v-3.5H12c.1-.3.3-.6.4-.9h-2.3v-.4h5.1v.3zm-1.1 1.3h-3v1.1h3v-1.1zm0 1.4h-3v1.1h3v-1.1zm7.1-2.6h-3c0 .4 0 .8-.1 1.2h2.3s.1 0 .1.1v.6c0 .8-.1 1.5-.2 1.8-.1.5-.3.7-.8.7h-.7c-.1 0-.1 0-.1-.1s-.1-.2-.1-.3c.3.1.6.1.9.1.3 0 .4-.1.5-.5.1-.5.2-1 .2-2h-2.1c-.1.5-.2.9-.4 1.3-.3.7-.8 1.2-1.4 1.6h-.1l-.1-.1c-.1-.1-.2-.2-.3-.2.6-.4 1.1-.8 1.4-1.6.3-.6.4-1.5.5-2.6h-1.8v-.3H21v.3zm5.7 2.9v1c0 .2 0 .3-.2.4-.1.1-.3.1-.8.1-.1 0-.1 0-.2-.1 0-.1-.1-.2-.1-.3h.6c.2 0 .3 0 .3-.2V12h-3.8v2.4h-.3V9.6h4.4v3.3zm-2.5-3h-1.7v1.8h1.7V9.9zm2.1 0h-1.8v1.8h1.8V9.9zm1.5-1c1.1.9 1.6 1.8 1.6 2.9 0 1.2-.4 2.1-1.6 2.9l-.1-.2c1-.9 1.3-1.7 1.3-2.7 0-1-.3-1.9-1.3-2.7l.1-.2zm4.9 207.2c.1-.8.6-1.2 1.3-1.2.7 0 1.2.4 1.2 1.1 0 .5-.2.8-.9 1.5-.6.6-1 1-1.2 1.4h2.1v.4h-2.6v-.3c.2-.6.6-1.1 1.3-1.7.6-.6.8-.8.8-1.2 0-.4-.3-.7-.7-.7-.4 0-.7.3-.8.9l-.5-.2zm5.9 1.1c0 1.6-.5 2.3-1.3 2.3s-1.3-.7-1.3-2.3c0-1.6.5-2.2 1.3-2.2s1.3.6 1.3 2.2zm-2.1 0c0 1.3.3 1.9.8 1.9s.8-.5.8-1.9c0-1.3-.3-1.8-.8-1.8s-.8.5-.8 1.8zm5.4 0c0 1.6-.5 2.3-1.3 2.3s-1.3-.7-1.3-2.3c0-1.6.5-2.2 1.3-2.2.9 0 1.3.6 1.3 2.2zm-2.1 0c0 1.3.3 1.9.8 1.9s.8-.5.8-1.9c0-1.3-.3-1.8-.8-1.8s-.8.5-.8 1.8zm4.9.8h.6v.4h-.6v1h-.4v-1h-1.7v-.4l1.5-3h.7v3zm-.4-1.5v-1.1h-.1c-.1.3-.3.6-.4.9l-.8 1.6h1.3v-1.4zm9.9-.4c.1-.8.6-1.2 1.3-1.2.7 0 1.2.4 1.2 1.1 0 .5-.2.8-.9 1.5-.6.6-1 1-1.2 1.4H57v.4h-2.6v-.3c.2-.6.6-1.1 1.3-1.7.6-.6.8-.8.8-1.2 0-.4-.3-.7-.7-.7-.4 0-.7.3-.8.9l-.6-.2zm6 1.1c0 1.6-.5 2.3-1.3 2.3s-1.3-.7-1.3-2.3c0-1.6.5-2.2 1.3-2.2s1.3.6 1.3 2.2zm-2.2 0c0 1.3.3 1.9.8 1.9s.8-.5.8-1.9c0-1.3-.3-1.8-.8-1.8s-.8.5-.8 1.8zm5.5 0c0 1.6-.5 2.3-1.3 2.3s-1.3-.7-1.3-2.3c0-1.6.5-2.2 1.3-2.2s1.3.6 1.3 2.2zm-2.1 0c0 1.3.3 1.9.8 1.9s.8-.5.8-1.9c0-1.3-.3-1.8-.8-1.8-.6 0-.8.5-.8 1.8zm5.2-1.7H65v1.5c.2-.3.5-.4.8-.4.7 0 1.2.6 1.2 1.4 0 .9-.6 1.5-1.3 1.5-.6 0-1.1-.3-1.2-.9l.5-.2c.1.4.4.6.8.6.5 0 .8-.4.8-1.1 0-.6-.3-1-.8-1-.3 0-.6.2-.7.6l-.4-.1.1-2.4H67v.5zm9.2.6c.1-.8.6-1.2 1.3-1.2.7 0 1.2.4 1.2 1.1 0 .5-.2.8-.9 1.5-.6.6-1 1-1.2 1.4h2.1v.4h-2.6v-.3c.2-.6.6-1.1 1.3-1.7.6-.6.8-.8.8-1.2 0-.4-.3-.7-.7-.7-.4 0-.7.3-.8.9l-.5-.2zm5.9 1.1c0 1.6-.5 2.3-1.3 2.3s-1.3-.7-1.3-2.3c0-1.6.5-2.2 1.3-2.2s1.3.6 1.3 2.2zm-2.1 0c0 1.3.3 1.9.8 1.9s.8-.5.8-1.9c0-1.3-.3-1.8-.8-1.8s-.8.5-.8 1.8zm5.4 0c0 1.6-.5 2.3-1.3 2.3s-1.3-.7-1.3-2.3c0-1.6.5-2.2 1.3-2.2.9 0 1.3.6 1.3 2.2zm-2.1 0c0 1.3.3 1.9.8 1.9s.8-.5.8-1.9c0-1.3-.3-1.8-.8-1.8s-.8.5-.8 1.8zm4.9-1.4c-.1-.3-.3-.4-.6-.4-.6 0-.9.6-1 1.8.3-.4.6-.6 1-.6.7 0 1.1.5 1.1 1.4 0 .9-.5 1.5-1.3 1.5s-1.3-.6-1.3-2.1c0-1.7.6-2.4 1.5-2.4.5 0 .9.2 1 .6l-.4.2zm-.7 3.3c.5 0 .7-.4.7-1.1 0-.6-.3-1-.7-1-.3 0-.6.2-.9.7.1.9.4 1.4.9 1.4zm10.2-3c.1-.8.6-1.2 1.3-1.2.7 0 1.2.4 1.2 1.1 0 .5-.2.8-.9 1.5-.6.6-1 1-1.2 1.4h2.1v.4h-2.6v-.3c.2-.6.6-1.1 1.3-1.7.6-.6.8-.8.8-1.2 0-.4-.3-.7-.7-.7-.4 0-.7.3-.8.9l-.5-.2zm5.9 1.1c0 1.6-.5 2.3-1.3 2.3s-1.3-.7-1.3-2.3c0-1.6.5-2.2 1.3-2.2s1.3.6 1.3 2.2zm-2.1 0c0 1.3.3 1.9.8 1.9s.8-.5.8-1.9c0-1.3-.3-1.8-.8-1.8s-.8.5-.8 1.8zm5.5 0c0 1.6-.5 2.3-1.3 2.3s-1.3-.7-1.3-2.3c0-1.6.5-2.2 1.3-2.2s1.3.6 1.3 2.2zm-2.2 0c0 1.3.3 1.9.8 1.9s.8-.5.8-1.9c0-1.3-.3-1.8-.8-1.8s-.8.5-.8 1.8zm5.4-1.8c-.8 1.2-1.1 2.4-1.3 4h-.6c.1-1.6.6-2.7 1.3-3.9h-2.1v-.4h2.6v.3zm9.1.7c.1-.8.6-1.2 1.3-1.2.7 0 1.2.4 1.2 1.1 0 .5-.2.8-.9 1.5-.6.6-1 1-1.2 1.4h2.1v.4H119v-.3c.2-.6.6-1.1 1.3-1.7.6-.6.8-.8.8-1.2 0-.4-.3-.7-.7-.7-.4 0-.7.3-.8.9l-.5-.2zm5.9 1.1c0 1.6-.5 2.3-1.3 2.3s-1.3-.7-1.3-2.3c0-1.6.5-2.2 1.3-2.2s1.3.6 1.3 2.2zm-2.1 0c0 1.3.3 1.9.8 1.9s.8-.5.8-1.9c0-1.3-.3-1.8-.8-1.8-.6 0-.8.5-.8 1.8zm5.4 0c0 1.6-.5 2.3-1.3 2.3s-1.3-.7-1.3-2.3c0-1.6.5-2.2 1.3-2.2s1.3.6 1.3 2.2zm-2.1 0c0 1.3.3 1.9.8 1.9s.8-.5.8-1.9c0-1.3-.3-1.8-.8-1.8s-.8.5-.8 1.8zm5.5 1.1c0 .7-.5 1.2-1.4 1.2-.8 0-1.3-.4-1.3-1.2 0-.5.3-.8.9-1.1-.6-.3-.8-.6-.8-1.1 0-.6.5-1.1 1.2-1.1s1.2.4 1.2 1.1c0 .5-.2.8-.8 1 .7.3 1 .7 1 1.2zm-1.4-1c-.6.3-.8.5-.8.9 0 .5.3.8.9.8.6 0 .9-.3.9-.8 0-.4-.2-.6-.8-.9h-.2zm.1-.4c.5-.2.7-.5.7-.9s-.3-.7-.8-.7c-.4 0-.8.3-.8.7 0 .3.2.6.7.8l.2.1zm10.2-.8c.1-.8.6-1.2 1.3-1.2.7 0 1.2.4 1.2 1.1 0 .5-.2.8-.9 1.5-.6.6-1 1-1.2 1.4h2.1v.4h-2.6v-.3c.2-.6.6-1.1 1.3-1.7.6-.6.8-.8.8-1.2 0-.4-.3-.7-.7-.7-.4 0-.7.3-.8.9l-.5-.2zm5.9 1.1c0 1.6-.5 2.3-1.3 2.3s-1.3-.7-1.3-2.3c0-1.6.5-2.2 1.3-2.2.9 0 1.3.6 1.3 2.2zm-2.1 0c0 1.3.3 1.9.8 1.9s.8-.5.8-1.9c0-1.3-.3-1.8-.8-1.8s-.8.5-.8 1.8zm5.5 0c0 1.6-.5 2.3-1.3 2.3s-1.3-.7-1.3-2.3c0-1.6.5-2.2 1.3-2.2s1.3.6 1.3 2.2zm-2.2 0c0 1.3.3 1.9.8 1.9s.8-.5.8-1.9c0-1.3-.3-1.8-.8-1.8s-.8.5-.8 1.8zm3.4 1.5c.1.3.3.4.6.4.6 0 .9-.5 1-1.8-.2.4-.6.6-1 .6-.6 0-1.2-.5-1.2-1.4 0-.9.5-1.5 1.2-1.5.8 0 1.3.6 1.3 2 0 1.7-.5 2.5-1.4 2.5-.5 0-.9-.2-1-.6l.5-.2zm.7-3.3c-.5 0-.8.4-.8 1.1 0 .6.3 1 .7 1 .4 0 .6-.2.9-.6 0-1-.3-1.5-.8-1.5zm10.3.7c.1-.8.6-1.2 1.3-1.2.7 0 1.2.4 1.2 1.1 0 .5-.2.8-.9 1.5-.6.6-1 1-1.2 1.4h2.1v.4H162v-.3c.2-.6.6-1.1 1.3-1.7.6-.6.8-.8.8-1.2 0-.4-.3-.7-.7-.7-.4 0-.7.3-.8.9l-.5-.2zm6 1.1c0 1.6-.5 2.3-1.3 2.3s-1.3-.7-1.3-2.3c0-1.6.5-2.2 1.3-2.2s1.3.6 1.3 2.2zm-2.2 0c0 1.3.3 1.9.8 1.9s.8-.5.8-1.9c0-1.3-.3-1.8-.8-1.8s-.8.5-.8 1.8zm4.5 1.8h.8v.4H169v-.4h.9v-3.5c-.2.2-.5.3-.9.4l-.1-.4c.4-.1.7-.3 1-.5h.4v4zm4.3-1.8c0 1.6-.5 2.3-1.3 2.3s-1.3-.7-1.3-2.3c0-1.6.5-2.2 1.3-2.2.9 0 1.3.6 1.3 2.2zm-2.1 0c0 1.3.3 1.9.8 1.9s.8-.5.8-1.9c0-1.3-.3-1.8-.8-1.8s-.8.5-.8 1.8zm11.1-1.1c.1-.8.6-1.2 1.3-1.2.7 0 1.2.4 1.2 1.1 0 .5-.2.8-.9 1.5-.6.6-1 1-1.2 1.4h2.1v.4h-2.6v-.3c.2-.6.6-1.1 1.3-1.7.6-.6.8-.8.8-1.2 0-.4-.3-.7-.7-.7-.4 0-.7.3-.8.9l-.5-.2zm5.9 1.1c0 1.6-.5 2.3-1.3 2.3s-1.3-.7-1.3-2.3c0-1.6.5-2.2 1.3-2.2s1.3.6 1.3 2.2zm-2.1 0c0 1.3.3 1.9.8 1.9s.8-.5.8-1.9c0-1.3-.3-1.8-.8-1.8s-.8.5-.8 1.8zm4.4 1.8h.8v.4h-2.2v-.4h.9v-3.5c-.2.2-.5.3-.9.4l-.1-.4c.4-.1.7-.3 1-.5h.4v4zm3.4 0h.8v.4h-2.2v-.4h.9v-3.5c-.2.2-.5.3-.9.4l-.1-.4c.4-.1.7-.3 1-.5h.4v4zm9.9-2.9c.1-.8.6-1.2 1.3-1.2.7 0 1.2.4 1.2 1.1 0 .5-.2.8-.9 1.5-.6.6-1 1-1.2 1.4h2.1v.4h-2.6v-.3c.2-.6.6-1.1 1.3-1.7.6-.6.8-.8.8-1.2 0-.4-.3-.7-.7-.7-.4 0-.7.3-.8.9l-.5-.2zm6 1.1c0 1.6-.5 2.3-1.3 2.3s-1.3-.7-1.3-2.3c0-1.6.5-2.2 1.3-2.2s1.3.6 1.3 2.2zm-2.2 0c0 1.3.3 1.9.8 1.9s.8-.5.8-1.9c0-1.3-.3-1.8-.8-1.8s-.8.5-.8 1.8zm4.5 1.8h.8v.4h-2.2v-.4h.9v-3.5c-.2.2-.5.3-.9.4l-.1-.4c.4-.1.7-.3 1-.5h.4v4zm1.7-2.9c.1-.8.6-1.2 1.3-1.2.7 0 1.2.4 1.2 1.1 0 .5-.2.8-.9 1.5-.6.6-1 1-1.2 1.4h2.1v.4h-2.6v-.3c.2-.6.6-1.1 1.3-1.7.6-.6.8-.8.8-1.2 0-.4-.3-.7-.7-.7-.4 0-.7.3-.8.9l-.5-.2zm11.6 0c.1-.8.6-1.2 1.3-1.2.7 0 1.2.4 1.2 1.1 0 .5-.2.8-.9 1.5-.6.6-1 1-1.2 1.4h2.1v.4h-2.6v-.3c.2-.6.6-1.1 1.3-1.7.6-.6.8-.8.8-1.2 0-.4-.3-.7-.7-.7-.4 0-.7.3-.8.9l-.5-.2zm5.9 1.1c0 1.6-.5 2.3-1.3 2.3s-1.3-.7-1.3-2.3c0-1.6.5-2.2 1.3-2.2s1.3.6 1.3 2.2zm-2.1 0c0 1.3.3 1.9.8 1.9s.8-.5.8-1.9c0-1.3-.3-1.8-.8-1.8s-.8.5-.8 1.8zm4.4 1.8h.8v.4h-2.2v-.4h.9v-3.5c-.2.2-.5.3-.9.4l-.1-.4c.4-.1.7-.3 1-.5h.4v4zm1.8-3.1c.2-.6.7-.9 1.3-.9.7 0 1.2.4 1.2 1.1 0 .5-.3.9-.8 1v.1c.6.1.9.5.9 1.1 0 .8-.5 1.3-1.3 1.3-.7 0-1.1-.3-1.3-.9l.5-.2c.2.5.4.6.9.6s.8-.3.8-.9c0-.6-.3-.9-1-.9h-.3v-.4h.3c.6 0 .9-.3.9-.8s-.3-.7-.7-.7c-.4 0-.7.2-.8.6l-.6-.1zm11.5.2c.1-.8.6-1.2 1.3-1.2.7 0 1.2.4 1.2 1.1 0 .5-.2.8-.9 1.5-.6.6-1 1-1.2 1.4h2.1v.4h-2.6v-.3c.2-.6.6-1.1 1.3-1.7.6-.6.8-.8.8-1.2 0-.4-.3-.7-.7-.7-.4 0-.7.3-.8.9l-.5-.2zm5.9 1.1c0 1.6-.5 2.3-1.3 2.3s-1.3-.7-1.3-2.3c0-1.6.5-2.2 1.3-2.2.9 0 1.3.6 1.3 2.2zm-2.1 0c0 1.3.3 1.9.8 1.9s.8-.5.8-1.9c0-1.3-.3-1.8-.8-1.8s-.8.5-.8 1.8zm4.5 1.8h.8v.4h-2.2v-.4h.9v-3.5c-.2.2-.5.3-.9.4l-.1-.4c.4-.1.7-.3 1-.5h.4v4zm3.8-1h.6v.4h-.6v1h-.4v-1h-1.7v-.4l1.5-3h.7v3zm-.5-1.5v-1.1h-.1c-.1.3-.3.6-.4.9l-.8 1.6h1.3v-1.4zm10-.4c.1-.8.6-1.2 1.3-1.2.7 0 1.2.4 1.2 1.1 0 .5-.2.8-.9 1.5-.6.6-1 1-1.2 1.4h2.1v.4h-2.6v-.3c.2-.6.6-1.1 1.3-1.7.6-.6.8-.8.8-1.2 0-.4-.3-.7-.7-.7-.4 0-.7.3-.8.9l-.5-.2zm5.9 1.1c0 1.6-.5 2.3-1.3 2.3s-1.3-.7-1.3-2.3c0-1.6.5-2.2 1.3-2.2s1.3.6 1.3 2.2zm-2.1 0c0 1.3.3 1.9.8 1.9s.8-.5.8-1.9c0-1.3-.3-1.8-.8-1.8-.6 0-.8.5-.8 1.8zm4.4 1.8h.8v.4h-2.2v-.4h.9v-3.5c-.2.2-.5.3-.9.4l-.1-.4c.4-.1.7-.3 1-.5h.4v4zm4.1-3.5h-1.8v1.5c.2-.3.5-.4.8-.4.7 0 1.2.6 1.2 1.4 0 .9-.6 1.5-1.3 1.5-.6 0-1.1-.3-1.2-.9l.5-.2c.1.4.4.6.8.6.5 0 .8-.4.8-1.1 0-.6-.3-1-.8-1-.3 0-.6.2-.7.6l-.4-.1.1-2.4h2.2v.5zm9.2.6c.1-.8.6-1.2 1.3-1.2.7 0 1.2.4 1.2 1.1 0 .5-.2.8-.9 1.5-.6.6-1 1-1.2 1.4h2.1v.4h-2.6v-.3c.2-.6.6-1.1 1.3-1.7.6-.6.8-.8.8-1.2 0-.4-.3-.7-.7-.7-.4 0-.7.3-.8.9l-.5-.2zm5.9 1.1c0 1.6-.5 2.3-1.3 2.3s-1.3-.7-1.3-2.3c0-1.6.5-2.2 1.3-2.2.9 0 1.3.6 1.3 2.2zm-2.1 0c0 1.3.3 1.9.8 1.9s.8-.5.8-1.9c0-1.3-.3-1.8-.8-1.8s-.8.5-.8 1.8zm4.5 1.8h.8v.4h-2.2v-.4h.9v-3.5c-.2.2-.5.3-.9.4l-.1-.4c.4-.1.7-.3 1-.5h.4v4zm3.7-3.2c-.1-.3-.3-.4-.6-.4-.6 0-.9.6-1 1.8.3-.4.6-.6 1-.6.7 0 1.1.5 1.1 1.4 0 .9-.5 1.5-1.3 1.5s-1.3-.6-1.3-2.1c0-1.7.6-2.4 1.5-2.4.5 0 .9.2 1 .6l-.4.2zm-.7 3.3c.5 0 .7-.4.7-1.1 0-.6-.3-1-.7-1-.3 0-.6.2-.9.7.1.9.4 1.4.9 1.4zm10.2-3c.1-.8.6-1.2 1.3-1.2.7 0 1.2.4 1.2 1.1 0 .5-.2.8-.9 1.5-.6.6-1 1-1.2 1.4h2.1v.4h-2.6v-.3c.2-.6.6-1.1 1.3-1.7.6-.6.8-.8.8-1.2 0-.4-.3-.7-.7-.7-.4 0-.7.3-.8.9l-.5-.2zm6 1.1c0 1.6-.5 2.3-1.3 2.3s-1.3-.7-1.3-2.3c0-1.6.5-2.2 1.3-2.2s1.3.6 1.3 2.2zm-2.2 0c0 1.3.3 1.9.8 1.9s.8-.5.8-1.9c0-1.3-.3-1.8-.8-1.8s-.8.5-.8 1.8zm4.5 1.8h.8v.4h-2.2v-.4h.9v-3.5c-.2.2-.5.3-.9.4l-.1-.4c.4-.1.7-.3 1-.5h.4v4zm4.3-3.6c-.8 1.2-1.1 2.4-1.3 4h-.6c.1-1.6.6-2.7 1.3-3.9h-2.1v-.4h2.6v.3z"/>
  <path class="st3" d="M33.7 207.2h8.6v1.2h-8.6zm21.4-2.3h8.6v3.4h-8.6zm21.6-2.6h8.6v6.1h-8.6zm21.6-10.1h8.6v16.2h-8.6zm21.6-2h8.6v18.2h-8.6zm21.7-9.3h8.6v27.5h-8.6zm21.6-11.2h8.6v38.7h-8.6zm21.6-19.3h8.6v58h-8.6zm21.6-25.6h8.6v83.6h-8.6zm21.7-5.8h8.6v89.4h-8.6zm21.6-19.6h8.6v108.9h-8.6zm21.6-7.3h8.6v116.3h-8.6zm21.6-8.2h8.6v124.4h-8.6zm21.7-27.5h8.6v151.9h-8.6z"/>
</svg>
