<svg id="レイヤー_1" xmlns="http://www.w3.org/2000/svg" viewBox="0 0 240 200">
  <style>
    .st0{fill:#EEEEEF;} .st1{fill:none;stroke:#C8C9CA;stroke-linecap:round;stroke-linejoin:round;stroke-miterlimit:10;stroke-dasharray:0,4;} .st2{fill:#231815;} .st3{fill:#D23F5D;} .st4{fill:none;stroke:#FFFFFF;stroke-width:2;}
  </style>
  <path class="st0" d="M11.6 25.8h227.6v136.9H11.6z"/>
  <path class="st1" d="M13 135.9h226.2M13 111.7h226.2M13 87.6h226.2M13 63.4h226.2M13 39.3h226.2"/>
  <path class="st2" d="M7.6 160.2c0 1.2-.3 1.7-1 1.7s-1-.5-1-1.7.4-1.6 1-1.6 1 .4 1 1.6zm-1.5 0c0 1 .2 1.4.6 1.4.4 0 .6-.4.6-1.4 0-1-.2-1.3-.6-1.3-.4-.1-.6.3-.6 1.3zm-1-25.5H3.8v1.2c.1-.2.3-.3.6-.3.5 0 .9.4.9 1 0 .7-.4 1.1-1 1.1-.5 0-.8-.2-.9-.6l.4-.1c.1.3.3.5.6.5.4 0 .6-.3.6-.8s-.2-.7-.6-.7c-.2 0-.5.1-.5.4h-.3l.1-1.8h1.6v.1zm2.6 1.2c0 1.2-.3 1.7-1 1.7s-1-.5-1-1.7.4-1.6 1-1.6 1 .5 1 1.6zm-1.6.1c0 1 .2 1.4.6 1.4.4 0 .6-.4.6-1.4 0-1-.2-1.3-.6-1.3-.4-.1-.6.3-.6 1.3zM2 88.9h.6v.3H1v-.3h.6v-2.5l-.6.3v-.4c.3-.1.5-.2.7-.4H2v3zm3-2.6H3.7v1.2c.1-.2.3-.3.6-.3.5 0 .9.4.9 1 0 .7-.4 1.1-1 1.1-.5 0-.8-.2-.9-.6l.4-.1c.1.3.3.5.6.5.4 0 .6-.3.6-.8s-.2-.7-.6-.7c-.2 0-.5.1-.5.4h-.3l-.1-2H5v.3zm2.6 1.2c0 1.2-.3 1.7-1 1.7-.6 0-1-.5-1-1.7s.4-1.6 1-1.6 1 .5 1 1.6zm-1.5 0c0 1 .2 1.4.6 1.4.4 0 .6-.4.6-1.4 0-1-.2-1.3-.6-1.3-.4 0-.6.4-.6 1.3zM2 113.1h.6v.3H1v-.3h.6v-2.5l-.6.3v-.4c.3-.1.5-.2.7-.4H2v3zm3.2-1.4c0 1.2-.3 1.7-1 1.7s-1-.5-1-1.7.4-1.6 1-1.6 1 .5 1 1.6zm-1.6.1c0 1 .2 1.4.6 1.4.4 0 .6-.4.6-1.4 0-1-.2-1.3-.6-1.3-.4-.1-.6.3-.6 1.3zm4-.1c0 1.2-.3 1.7-1 1.7-.6 0-1-.5-1-1.7s.4-1.6 1-1.6 1 .5 1 1.6zm-1.5.1c0 1 .2 1.4.6 1.4.4 0 .6-.4.6-1.4 0-1-.2-1.3-.6-1.3-.4-.1-.6.3-.6 1.3zM.8 62.6c.1-.6.5-.9 1-.9s.9.3.9.8c0 .4-.1.6-.7 1.1-.5.4-.7.7-.8 1h1.5v.4H.8v-.3c.2-.4.5-.8.9-1.2.5-.4.6-.6.6-.9 0-.3-.2-.5-.5-.5s-.5.2-.6.6l-.4-.1zm4.4.7c0 1.2-.3 1.7-1 1.7s-1-.5-1-1.7.4-1.6 1-1.6 1 .5 1 1.6zm-1.6 0c0 1 .2 1.4.6 1.4.4 0 .6-.4.6-1.4 0-1-.2-1.3-.6-1.3-.4 0-.6.4-.6 1.3zm4 0c0 1.2-.3 1.7-1 1.7-.6 0-1-.5-1-1.7s.4-1.6 1-1.6 1 .5 1 1.6zm-1.5 0c0 1 .2 1.4.6 1.4.4 0 .6-.4.6-1.4 0-1-.2-1.3-.6-1.3-.4 0-.6.4-.6 1.3zM.8 38.4c.1-.6.5-.9 1-.9s.9.3.9.8c0 .4-.1.6-.7 1.1-.5.4-.7.7-.8 1h1.5v.3H.8v-.3c.2-.4.5-.8.9-1.2.5-.4.6-.6.6-.9 0-.3-.2-.5-.5-.5s-.5.2-.6.6H.8zm4.2-.5H3.7v1.2c.1-.2.3-.3.6-.3.5 0 .9.4.9 1 0 .7-.4 1.1-1 1.1-.5 0-.8-.2-.9-.6l.4-.1c.1.3.3.5.6.5.4 0 .6-.3.6-.8s-.2-.7-.6-.7c-.2 0-.5.1-.5.4h-.3l.1-1.8H5v.1zm2.6 1.2c0 1.2-.3 1.7-1 1.7-.6 0-1-.5-1-1.7s.4-1.6 1-1.6 1 .5 1 1.6zm-1.5 0c0 1 .2 1.4.6 1.4.4 0 .6-.4.6-1.4 0-1-.2-1.3-.6-1.3-.4 0-.6.4-.6 1.3zM2.6 25.3c-.7.6-1 1.2-1 2s.2 1.4 1 2l-.1.1c-.8-.6-1.2-1.3-1.2-2.1 0-.9.3-1.5 1.2-2.1l.1.1zm4.1 3.8c0 .1 0 .1 0 0-.1.1-.1.1-.1 0-1-.6-1.5-1.5-1.6-2.4-.2 1.1-.8 1.9-1.7 2.4h-.1l-.1-.1H3c1.2-.6 1.8-1.7 1.8-3v-.5h.3s.1 0 .1.1v.5c.2 1.2.7 2.2 1.8 2.8-.2.1-.2.1-.3.2zm.8-3.9c.8.6 1.2 1.3 1.2 2.1 0 .9-.3 1.5-1.2 2.1l-.1-.1c.7-.6 1-1.2 1-2s-.2-1.4-1-2l.1-.1z"/>
  <path class="st3" d="M16.8 161.9h6.3v.8h-6.3zm15.9-2.3H39v3.1h-6.3zm15.9-3.1h6.3v6.3h-6.3zm15.8-6.2h6.3v12.5h-6.3zm15.9-5.3h6.3v17.8h-6.3zm15.8-5.2h6.3v23h-6.3zm15.9-9.3h6.3v32.2H112zm15.8-8.6h6.3v40.9h-6.3zm15.9-15.6h6.3v56.5h-6.3zm15.8-9.2h6.3v65.7h-6.3zm15.9-4.4h6.3v70.1h-6.3zm15.8-10.1h6.3v80.2h-6.3zm15.9-6.9h6.3v87.1h-6.3zm15.8-22.2h6.3v109.3h-6.3z"/>
  <path class="st4" d="M18.6 155.1c.1-.8.6-1.2 1.4-1.2.8 0 1.3.4 1.3 1.2 0 .5-.2.9-.9 1.5-.6.6-.9.9-1.1 1.2h2v.6h-2.8v-.5c.3-.6.6-1 1.3-1.7.6-.6.7-.8.7-1.2 0-.4-.2-.6-.6-.6-.4 0-.6.3-.6.8l-.7-.1z"/>
  <path class="st3" d="M18.6 155.1c.1-.8.6-1.2 1.4-1.2.8 0 1.3.4 1.3 1.2 0 .5-.2.9-.9 1.5-.6.6-.9.9-1.1 1.2h2v.6h-2.8v-.5c.3-.6.6-1 1.3-1.7.6-.6.7-.8.7-1.2 0-.4-.2-.6-.6-.6-.4 0-.6.3-.6.8l-.7-.1z"/>
  <path class="st4" d="M37 152.2h-1.8v1.3c.2-.2.4-.4.8-.4.7 0 1.3.6 1.3 1.5s-.6 1.6-1.4 1.6c-.7 0-1.2-.3-1.4-1l.7-.2c.1.4.3.6.6.6.4 0 .7-.4.7-1s-.2-.9-.7-.9c-.3 0-.5.2-.6.5l-.6-.1.1-2.5H37v.6z"/>
  <path class="st3" d="M37 152.2h-1.8v1.3c.2-.2.4-.4.8-.4.7 0 1.3.6 1.3 1.5s-.6 1.6-1.4 1.6c-.7 0-1.2-.3-1.4-1l.7-.2c.1.4.3.6.6.6.4 0 .7-.4.7-1s-.2-.9-.7-.9c-.3 0-.5.2-.6.5l-.6-.1.1-2.5H37v.6z"/>
  <path class="st4" d="M50.4 152.4h.8v.6h-2.4v-.6h.9v-3.2c-.2.2-.5.3-.8.4l-.1-.6c.4-.1.7-.3 1-.5h.6v3.9zm4.4-1.7c0 1.7-.5 2.3-1.4 2.3-.9 0-1.4-.7-1.4-2.3 0-1.7.5-2.3 1.4-2.3s1.4.7 1.4 2.3zm-2.1 0c0 1.3.2 1.7.6 1.7.5 0 .7-.4.7-1.7 0-1.3-.2-1.7-.7-1.7-.4 0-.6.4-.6 1.7z"/>
  <path class="st3" d="M50.4 152.4h.8v.6h-2.4v-.6h.9v-3.2c-.2.2-.5.3-.8.4l-.1-.6c.4-.1.7-.3 1-.5h.6v3.9zm4.4-1.7c0 1.7-.5 2.3-1.4 2.3-.9 0-1.4-.7-1.4-2.3 0-1.7.5-2.3 1.4-2.3s1.4.7 1.4 2.3zm-2.1 0c0 1.3.2 1.7.6 1.7.5 0 .7-.4.7-1.7 0-1.3-.2-1.7-.7-1.7-.4 0-.6.4-.6 1.7z"/>
  <path class="st4" d="M64.5 143.4c.1-.8.6-1.2 1.4-1.2.8 0 1.3.4 1.3 1.2 0 .5-.2.9-.9 1.5-.6.6-.9.9-1.1 1.2h2v.6h-2.8v-.5c.3-.6.6-1 1.3-1.7.6-.6.7-.8.7-1.2 0-.4-.2-.6-.6-.6-.4 0-.6.3-.6.8l-.7-.1zm5.2 2.7h.8v.6h-2.4v-.6h.9v-3.2c-.2.2-.5.3-.8.4l-.1-.6c.4-.1.7-.3 1-.5h.6v3.9z"/>
  <path class="st3" d="M64.5 143.4c.1-.8.6-1.2 1.4-1.2.8 0 1.3.4 1.3 1.2 0 .5-.2.9-.9 1.5-.6.6-.9.9-1.1 1.2h2v.6h-2.8v-.5c.3-.6.6-1 1.3-1.7.6-.6.7-.8.7-1.2 0-.4-.2-.6-.6-.6-.4 0-.6.3-.6.8l-.7-.1zm5.2 2.7h.8v.6h-2.4v-.6h.9v-3.2c-.2.2-.5.3-.8.4l-.1-.6c.4-.1.7-.3 1-.5h.6v3.9z"/>
  <path class="st4" d="M80.3 137.5c.2-.6.7-1 1.4-1 .8 0 1.3.5 1.3 1.1 0 .5-.3.9-.9 1 .6.1.9.5.9 1.1 0 .8-.6 1.3-1.4 1.3-.7 0-1.2-.3-1.4-1h.8c.1.5.3.6.7.6.4 0 .7-.3.7-.8s-.2-.8-.9-.8h-.3v-.6h.3c.6 0 .8-.3.8-.7 0-.4-.2-.6-.6-.6-.3 0-.6.2-.6.6l-.8-.2zm6-.3h-1.8v1.3c.2-.2.4-.4.8-.4.7 0 1.3.6 1.3 1.5s-.6 1.6-1.4 1.6c-.7 0-1.2-.3-1.4-1l.7-.2c.1.4.3.6.6.6.4 0 .7-.4.7-1s-.2-.9-.7-.9c-.3 0-.5.2-.6.5l-.6-.1.1-2.5h2.4v.6z"/>
  <path class="st3" d="M80.3 137.5c.2-.6.7-1 1.4-1 .8 0 1.3.5 1.3 1.1 0 .5-.3.9-.9 1 .6.1.9.5.9 1.1 0 .8-.6 1.3-1.4 1.3-.7 0-1.2-.3-1.4-1h.8c.1.5.3.6.7.6.4 0 .7-.3.7-.8s-.2-.8-.9-.8h-.3v-.6h.3c.6 0 .8-.3.8-.7 0-.4-.2-.6-.6-.6-.3 0-.6.2-.6.6l-.8-.2zm6-.3h-1.8v1.3c.2-.2.4-.4.8-.4.7 0 1.3.6 1.3 1.5s-.6 1.6-1.4 1.6c-.7 0-1.2-.3-1.4-1l.7-.2c.1.4.3.6.6.6.4 0 .7-.4.7-1s-.2-.9-.7-.9c-.3 0-.5.2-.6.5l-.6-.1.1-2.5h2.4v.6z"/>
  <path class="st4" d="M98.5 134.3h.5v.6h-.6v1h-.7v-1H96v-.5l1.5-3h.9v2.9zm-.7-.9V132h-.1c-.1.4-.3.8-.5 1.2l-.6 1.2h1.1v-1zm4.3-1.4h-1.8v1.3c.2-.2.4-.4.8-.4.7 0 1.3.6 1.3 1.5s-.6 1.6-1.4 1.6c-.7 0-1.2-.3-1.4-1l.7-.2c.1.4.3.6.6.6.4 0 .7-.4.7-1s-.2-.9-.7-.9c-.3 0-.5.2-.6.5l-.6-.1.1-2.5h2.4v.6z"/>
  <path class="st3" d="M98.5 134.3h.5v.6h-.6v1h-.7v-1H96v-.5l1.5-3h.9v2.9zm-.7-.9V132h-.1c-.1.4-.3.8-.5 1.2l-.6 1.2h1.1v-1zm4.3-1.4h-1.8v1.3c.2-.2.4-.4.8-.4.7 0 1.3.6 1.3 1.5s-.6 1.6-1.4 1.6c-.7 0-1.2-.3-1.4-1l.7-.2c.1.4.3.6.6.6.4 0 .7-.4.7-1s-.2-.9-.7-.9c-.3 0-.5.2-.6.5l-.6-.1.1-2.5h2.4v.6z"/>
  <path class="st4" d="M114.1 122.3c-.1-.3-.3-.4-.5-.4-.5 0-.8.6-.8 1.6.2-.4.5-.5.9-.5.7 0 1.2.5 1.2 1.4 0 1-.6 1.6-1.4 1.6-.9 0-1.4-.6-1.4-2.1 0-1.8.6-2.5 1.5-2.5.6 0 1 .3 1.2.7l-.7.2zm-.6 3.1c.4 0 .6-.3.6-1 0-.6-.2-.9-.6-.9-.3 0-.6.2-.7.6 0 .9.3 1.3.7 1.3zm4.7-1.8c0 1.7-.5 2.3-1.4 2.3-.9 0-1.4-.7-1.4-2.3 0-1.7.5-2.3 1.4-2.3s1.4.6 1.4 2.3zm-2.1 0c0 1.3.2 1.7.6 1.7.5 0 .7-.4.7-1.7 0-1.3-.2-1.7-.7-1.7-.4 0-.6.4-.6 1.7z"/>
  <path class="st3" d="M114.1 122.3c-.1-.3-.3-.4-.5-.4-.5 0-.8.6-.8 1.6.2-.4.5-.5.9-.5.7 0 1.2.5 1.2 1.4 0 1-.6 1.6-1.4 1.6-.9 0-1.4-.6-1.4-2.1 0-1.8.6-2.5 1.5-2.5.6 0 1 .3 1.2.7l-.7.2zm-.6 3.1c.4 0 .6-.3.6-1 0-.6-.2-.9-.6-.9-.3 0-.6.2-.7.6 0 .9.3 1.3.7 1.3zm4.7-1.8c0 1.7-.5 2.3-1.4 2.3-.9 0-1.4-.7-1.4-2.3 0-1.7.5-2.3 1.4-2.3s1.4.6 1.4 2.3zm-2.1 0c0 1.3.2 1.7.6 1.7.5 0 .7-.4.7-1.7 0-1.3-.2-1.7-.7-1.7-.4 0-.6.4-.6 1.7z"/>
  <path class="st4" d="M130.6 113.8c-.7 1.2-1.1 2.4-1.2 4h-.8c.1-1.6.6-2.7 1.3-3.9h-2v-.6h2.7v.5zm3.5 2.8c0 .7-.6 1.2-1.4 1.2-.9 0-1.4-.5-1.4-1.2 0-.5.3-.8.9-1.1-.6-.3-.8-.6-.8-1.1 0-.6.5-1.2 1.3-1.2s1.3.5 1.3 1.1c0 .5-.3.8-.8 1 .7.4.9.7.9 1.3zm-1.6-.9c-.4.2-.6.5-.6.8 0 .4.3.7.7.7.5 0 .8-.3.8-.7 0-.4-.2-.6-.7-.8h-.2zm.3-.6c.4-.2.5-.4.5-.8s-.3-.6-.7-.6c-.4 0-.6.2-.6.6 0 .3.1.5.6.7l.2.1z"/>
  <path class="st3" d="M130.6 113.8c-.7 1.2-1.1 2.4-1.2 4h-.8c.1-1.6.6-2.7 1.3-3.9h-2v-.6h2.7v.5zm3.5 2.8c0 .7-.6 1.2-1.4 1.2-.9 0-1.4-.5-1.4-1.2 0-.5.3-.8.9-1.1-.6-.3-.8-.6-.8-1.1 0-.6.5-1.2 1.3-1.2s1.3.5 1.3 1.1c0 .5-.3.8-.8 1 .7.4.9.7.9 1.3zm-1.6-.9c-.4.2-.6.5-.6.8 0 .4.3.7.7.7.5 0 .8-.3.8-.7 0-.4-.2-.6-.7-.8h-.2zm.3-.6c.4-.2.5-.4.5-.8s-.3-.6-.7-.6c-.4 0-.6.2-.6.6 0 .3.1.5.6.7l.2.1z"/>
  <path class="st4" d="M143.4 101h.8v.6h-2.4v-.6h.9v-3.2c-.2.2-.5.3-.8.4l-.1-.6c.4-.1.7-.3 1-.5h.6v3.9zm3.4 0h.8v.6h-2.4v-.6h.9v-3.2c-.2.2-.5.3-.8.4l-.1-.6c.4-.1.7-.3 1-.5h.6v3.9zm4.3-1.7c0 1.7-.5 2.3-1.4 2.3-.9 0-1.4-.7-1.4-2.3 0-1.7.5-2.3 1.4-2.3s1.4.7 1.4 2.3zm-2.1.1c0 1.3.2 1.7.6 1.7.5 0 .7-.4.7-1.7 0-1.3-.2-1.7-.7-1.7-.4-.1-.6.3-.6 1.7z"/>
  <path class="st3" d="M143.4 101h.8v.6h-2.4v-.6h.9v-3.2c-.2.2-.5.3-.8.4l-.1-.6c.4-.1.7-.3 1-.5h.6v3.9zm3.4 0h.8v.6h-2.4v-.6h.9v-3.2c-.2.2-.5.3-.8.4l-.1-.6c.4-.1.7-.3 1-.5h.6v3.9zm4.3-1.7c0 1.7-.5 2.3-1.4 2.3-.9 0-1.4-.7-1.4-2.3 0-1.7.5-2.3 1.4-2.3s1.4.7 1.4 2.3zm-2.1.1c0 1.3.2 1.7.6 1.7.5 0 .7-.4.7-1.7 0-1.3-.2-1.7-.7-1.7-.4-.1-.6.3-.6 1.7z"/>
  <path class="st4" d="M159.7 92.2h.8v.6h-2.4v-.6h.9V89c-.2.2-.5.3-.8.4l-.1-.6c.4-.1.7-.3 1-.5h.6v3.9zm1.6-3c.2-.6.7-1 1.4-1 .8 0 1.3.5 1.3 1.1 0 .5-.3.9-.9 1 .6.1.9.5.9 1.1 0 .8-.6 1.3-1.4 1.3-.7 0-1.2-.3-1.4-1l.7-.2c.1.5.3.6.7.6.4 0 .7-.3.7-.8s-.2-.8-.9-.8h-.3v-.6h.3c.6 0 .8-.3.8-.7 0-.4-.2-.6-.6-.6-.3 0-.6.2-.6.6h-.7zm6.1 1.3c0 1.7-.5 2.3-1.4 2.3-.9 0-1.4-.7-1.4-2.3 0-1.7.5-2.3 1.4-2.3.9 0 1.4.6 1.4 2.3zm-2 0c0 1.3.2 1.7.6 1.7.5 0 .7-.4.7-1.7 0-1.3-.2-1.7-.7-1.7-.4 0-.6.4-.6 1.7z"/>
  <path class="st3" d="M159.7 92.2h.8v.6h-2.4v-.6h.9V89c-.2.2-.5.3-.8.4l-.1-.6c.4-.1.7-.3 1-.5h.6v3.9zm1.6-3c.2-.6.7-1 1.4-1 .8 0 1.3.5 1.3 1.1 0 .5-.3.9-.9 1 .6.1.9.5.9 1.1 0 .8-.6 1.3-1.4 1.3-.7 0-1.2-.3-1.4-1l.7-.2c.1.5.3.6.7.6.4 0 .7-.3.7-.8s-.2-.8-.9-.8h-.3v-.6h.3c.6 0 .8-.3.8-.7 0-.4-.2-.6-.6-.6-.3 0-.6.2-.6.6h-.7zm6.1 1.3c0 1.7-.5 2.3-1.4 2.3-.9 0-1.4-.7-1.4-2.3 0-1.7.5-2.3 1.4-2.3.9 0 1.4.6 1.4 2.3zm-2 0c0 1.3.2 1.7.6 1.7.5 0 .7-.4.7-1.7 0-1.3-.2-1.7-.7-1.7-.4 0-.6.4-.6 1.7z"/>
  <path class="st4" d="M175.6 87h.8v.6H174V87h.9v-3.2c-.2.2-.5.3-.8.4l-.1-.6c.4-.1.7-.3 1-.5h.6V87zm1.5-3c.2-.6.7-1 1.4-1 .8 0 1.3.5 1.3 1.1 0 .5-.3.9-.9 1 .6.1.9.5.9 1.1 0 .8-.6 1.3-1.4 1.3-.7 0-1.2-.3-1.4-1l.7-.2c.1.5.3.6.7.6.4 0 .7-.3.7-.8s-.2-.8-.9-.8h-.2V85h.3c.6 0 .8-.3.8-.7 0-.4-.2-.6-.6-.6-.3 0-.6.2-.6.6l-.8-.3zm4.2 2.7c.1.3.2.4.5.4.5 0 .8-.4.8-1.6-.2.4-.5.5-.9.5-.7 0-1.2-.6-1.2-1.4 0-1 .5-1.6 1.4-1.6.9 0 1.5.6 1.5 2.1 0 1.8-.6 2.5-1.5 2.5-.6 0-1-.2-1.2-.7l.6-.2zm.6-3.1c-.4 0-.6.4-.6 1s.2.9.6.9c.3 0 .6-.2.7-.6-.1-.8-.3-1.3-.7-1.3z"/>
  <path class="st3" d="M175.6 87h.8v.6H174V87h.9v-3.2c-.2.2-.5.3-.8.4l-.1-.6c.4-.1.7-.3 1-.5h.6V87zm1.5-3c.2-.6.7-1 1.4-1 .8 0 1.3.5 1.3 1.1 0 .5-.3.9-.9 1 .6.1.9.5.9 1.1 0 .8-.6 1.3-1.4 1.3-.7 0-1.2-.3-1.4-1l.7-.2c.1.5.3.6.7.6.4 0 .7-.3.7-.8s-.2-.8-.9-.8h-.2V85h.3c.6 0 .8-.3.8-.7 0-.4-.2-.6-.6-.6-.3 0-.6.2-.6.6l-.8-.3zm4.2 2.7c.1.3.2.4.5.4.5 0 .8-.4.8-1.6-.2.4-.5.5-.9.5-.7 0-1.2-.6-1.2-1.4 0-1 .5-1.6 1.4-1.6.9 0 1.5.6 1.5 2.1 0 1.8-.6 2.5-1.5 2.5-.6 0-1-.2-1.2-.7l.6-.2zm.6-3.1c-.4 0-.6.4-.6 1s.2.9.6.9c.3 0 .6-.2.7-.6-.1-.8-.3-1.3-.7-1.3z"/>
  <path class="st4" d="M191.4 77.9h.8v.6h-2.4v-.6h.9v-3.2c-.2.2-.5.3-.8.4l-.1-.6c.4-.1.7-.3 1-.5h.6v3.9zm3.6-3c-.1-.3-.3-.4-.5-.4-.5 0-.8.6-.8 1.6.2-.4.5-.5.9-.5.7 0 1.2.5 1.2 1.4 0 1-.6 1.6-1.4 1.6-.9 0-1.4-.6-1.4-2.1 0-1.8.6-2.5 1.5-2.5.6 0 1 .3 1.2.7l-.7.2zm-.6 3.1c.4 0 .6-.3.6-1 0-.6-.2-.9-.6-.9-.3 0-.6.2-.7.6 0 .9.3 1.3.7 1.3zm3.8-.1h.8v.6h-2.4v-.6h.9v-3.2c-.2.2-.5.3-.8.4l-.1-.6c.4-.1.7-.3 1-.5h.6v3.9z"/>
  <path class="st3" d="M191.4 77.9h.8v.6h-2.4v-.6h.9v-3.2c-.2.2-.5.3-.8.4l-.1-.6c.4-.1.7-.3 1-.5h.6v3.9zm3.6-3c-.1-.3-.3-.4-.5-.4-.5 0-.8.6-.8 1.6.2-.4.5-.5.9-.5.7 0 1.2.5 1.2 1.4 0 1-.6 1.6-1.4 1.6-.9 0-1.4-.6-1.4-2.1 0-1.8.6-2.5 1.5-2.5.6 0 1 .3 1.2.7l-.7.2zm-.6 3.1c.4 0 .6-.3.6-1 0-.6-.2-.9-.6-.9-.3 0-.6.2-.7.6 0 .9.3 1.3.7 1.3zm3.8-.1h.8v.6h-2.4v-.6h.9v-3.2c-.2.2-.5.3-.8.4l-.1-.6c.4-.1.7-.3 1-.5h.6v3.9z"/>
  <path class="st4" d="M207.3 70.8h.8v.6h-2.4v-.6h.9v-3.2c-.2.2-.5.3-.8.4l-.1-.6c.4-.1.7-.3 1-.5h.6v3.9zm4.3-3.4c-.7 1.2-1.1 2.4-1.2 4h-.8c.1-1.6.6-2.7 1.3-3.9h-2v-.6h2.7v.5zm3.3 0c-.7 1.2-1.1 2.4-1.2 4h-.8c.1-1.6.6-2.7 1.3-3.9h-2v-.6h2.7v.5z"/>
  <path class="st3" d="M207.3 70.8h.8v.6h-2.4v-.6h.9v-3.2c-.2.2-.5.3-.8.4l-.1-.6c.4-.1.7-.3 1-.5h.6v3.9zm4.3-3.4c-.7 1.2-1.1 2.4-1.2 4h-.8c.1-1.6.6-2.7 1.3-3.9h-2v-.6h2.7v.5zm3.3 0c-.7 1.2-1.1 2.4-1.2 4h-.8c.1-1.6.6-2.7 1.3-3.9h-2v-.6h2.7v.5z"/>
  <path class="st4" d="M221.4 44.7c.1-.8.6-1.2 1.4-1.2.8 0 1.3.4 1.3 1.2 0 .5-.2.9-.9 1.5-.6.6-.9.9-1.1 1.2h2v.6h-2.8v-.5c.3-.6.6-1 1.3-1.7.6-.6.7-.8.7-1.2 0-.4-.2-.6-.6-.6-.4 0-.6.3-.6.8l-.7-.1zm5.1 2.8h.8v.6h-2.4v-.6h.9v-3.2c-.2.2-.5.3-.8.4l-.1-.6c.4-.1.7-.3 1-.5h.6v3.9zm2.4-.3c.1.3.2.4.5.4.5 0 .8-.4.8-1.6-.2.4-.5.5-.9.5-.7 0-1.2-.6-1.2-1.4 0-1 .5-1.6 1.4-1.6.9 0 1.5.6 1.5 2.1 0 1.8-.6 2.5-1.5 2.5-.6 0-1-.2-1.2-.7l.6-.2zm.5-3.1c-.4 0-.6.4-.6 1s.2.9.6.9c.3 0 .6-.2.7-.6 0-.9-.2-1.3-.7-1.3z"/>
  <path class="st3" d="M221.4 44.7c.1-.8.6-1.2 1.4-1.2.8 0 1.3.4 1.3 1.2 0 .5-.2.9-.9 1.5-.6.6-.9.9-1.1 1.2h2v.6h-2.8v-.5c.3-.6.6-1 1.3-1.7.6-.6.7-.8.7-1.2 0-.4-.2-.6-.6-.6-.4 0-.6.3-.6.8l-.7-.1zm5.1 2.8h.8v.6h-2.4v-.6h.9v-3.2c-.2.2-.5.3-.8.4l-.1-.6c.4-.1.7-.3 1-.5h.6v3.9zm2.4-.3c.1.3.2.4.5.4.5 0 .8-.4.8-1.6-.2.4-.5.5-.9.5-.7 0-1.2-.6-1.2-1.4 0-1 .5-1.6 1.4-1.6.9 0 1.5.6 1.5 2.1 0 1.8-.6 2.5-1.5 2.5-.6 0-1-.2-1.2-.7l.6-.2zm.5-3.1c-.4 0-.6.4-.6 1s.2.9.6.9c.3 0 .6-.2.7-.6 0-.9-.2-1.3-.7-1.3z"/>
  <path class="st2" d="M15.8 171.5c.1-.6.5-.9 1-.9s.9.3.9.8c0 .4-.1.6-.7 1.1-.5.4-.7.7-.8 1h1.5v.3h-1.9v-.3c.2-.4.5-.8.9-1.2.5-.4.6-.6.6-.9 0-.3-.2-.5-.5-.5s-.5.2-.6.6h-.4zm4.3.7c0 1.2-.3 1.7-1 1.7-.6 0-1-.5-1-1.7s.4-1.6 1-1.6 1 .5 1 1.6zm-1.5 0c0 1 .2 1.4.6 1.4.4 0 .6-.4.6-1.4 0-1-.2-1.3-.6-1.3-.4 0-.6.3-.6 1.3zm4 0c0 1.2-.3 1.7-1 1.7s-1-.5-1-1.7.4-1.6 1-1.6 1 .5 1 1.6zm-1.6 0c0 1 .2 1.4.6 1.4.4 0 .6-.4.6-1.4 0-1-.2-1.3-.6-1.3-.4 0-.6.3-.6 1.3zm3.6.6h.4v.3h-.4v.7h-.3v-.7H23v-.3l1.1-2.2h.5v2.2zm-.3-1.1v-.8h-.1c-.1.2-.2.5-.3.7l-.6 1.2h1v-1.1zm7.3-.2c.1-.6.5-.9 1-.9s.9.3.9.8c0 .4-.1.6-.7 1.1-.5.4-.7.7-.8 1h1.5v.3h-1.9v-.3c.2-.4.5-.8.9-1.2.5-.4.6-.6.6-.9 0-.3-.2-.5-.5-.5s-.5.2-.6.6h-.4zm4.4.7c0 1.2-.3 1.7-1 1.7s-1-.5-1-1.7.4-1.6 1-1.6 1 .5 1 1.6zm-1.6 0c0 1 .2 1.4.6 1.4.4 0 .6-.4.6-1.4 0-1-.2-1.3-.6-1.3-.4 0-.6.3-.6 1.3zm4 0c0 1.2-.3 1.7-1 1.7s-1-.5-1-1.7.4-1.6 1-1.6 1 .5 1 1.6zm-1.6 0c0 1 .2 1.4.6 1.4.4 0 .6-.4.6-1.4 0-1-.2-1.3-.6-1.3-.4 0-.6.3-.6 1.3zm3.9-1.2h-1.3v1.2c.1-.2.3-.3.6-.3.5 0 .9.4.9 1 0 .7-.4 1.1-1 1.1-.5 0-.8-.2-.9-.6l.4-.1c.1.3.3.5.6.5.4 0 .6-.3.6-.8s-.2-.7-.6-.7c-.2 0-.5.1-.5.4h-.3l.1-1.8h1.6v.1zm6.7.5c.1-.6.5-.9 1-.9s.9.3.9.8c0 .4-.1.6-.7 1.1-.5.4-.7.7-.8 1h1.5v.3h-1.9v-.3c.2-.4.5-.8.9-1.2.5-.4.6-.6.6-.9 0-.3-.2-.5-.5-.5s-.5.2-.6.6h-.4zm4.4.7c0 1.2-.3 1.7-1 1.7s-1-.5-1-1.7.4-1.6 1-1.6 1 .5 1 1.6zm-1.6 0c0 1 .2 1.4.6 1.4.4 0 .6-.4.6-1.4 0-1-.2-1.3-.6-1.3-.4 0-.6.3-.6 1.3zm4 0c0 1.2-.3 1.7-1 1.7-.6 0-1-.5-1-1.7s.4-1.6 1-1.6 1 .5 1 1.6zm-1.6 0c0 1 .2 1.4.6 1.4.4 0 .6-.4.6-1.4 0-1-.2-1.3-.6-1.3-.3 0-.6.3-.6 1.3zm3.6-1c-.1-.2-.2-.3-.4-.3-.5 0-.7.5-.7 1.3.2-.3.4-.4.7-.4.5 0 .8.4.8 1 0 .7-.4 1.1-.9 1.1-.6 0-1-.5-1-1.5 0-1.3.4-1.8 1.1-1.8.4 0 .6.2.8.5l-.4.1zm-.5 2.4c.3 0 .6-.3.6-.8s-.2-.7-.5-.7c-.2 0-.5.1-.6.5-.1.7.2 1 .5 1zm7.5-2.1c.1-.6.5-.9 1-.9s.9.3.9.8c0 .4-.1.6-.7 1.1-.5.4-.7.7-.8 1h1.5v.3h-1.9v-.3c.2-.4.5-.8.9-1.2.5-.4.6-.6.6-.9 0-.3-.2-.5-.5-.5s-.5.2-.6.6h-.4zm4.4.7c0 1.2-.3 1.7-1 1.7-.6 0-1-.5-1-1.7s.4-1.6 1-1.6 1 .5 1 1.6zm-1.6 0c0 1 .2 1.4.6 1.4.4 0 .6-.4.6-1.4 0-1-.2-1.3-.6-1.3-.4 0-.6.3-.6 1.3zm4 0c0 1.2-.3 1.7-1 1.7s-1-.5-1-1.7.4-1.6 1-1.6c.7 0 1 .5 1 1.6zm-1.5 0c0 1 .2 1.4.6 1.4.4 0 .6-.4.6-1.4 0-1-.2-1.3-.6-1.3-.4 0-.6.3-.6 1.3zm3.9-1.3c-.6.9-.8 1.8-.9 2.9h-.4c.1-1.2.4-2 1-2.9h-1.5v-.3h1.9v.3zm6.6.6c.1-.6.5-.9 1-.9s.9.3.9.8c0 .4-.1.6-.7 1.1-.5.4-.7.7-.8 1h1.5v.3H79v-.3c.2-.4.5-.8.9-1.2.5-.4.6-.6.6-.9 0-.3-.2-.5-.5-.5s-.5.2-.6.6H79zm4.4.7c0 1.2-.3 1.7-1 1.7s-1-.5-1-1.7.4-1.6 1-1.6 1 .5 1 1.6zm-1.6 0c0 1 .2 1.4.6 1.4.4 0 .6-.4.6-1.4 0-1-.2-1.3-.6-1.3-.4 0-.6.3-.6 1.3zm4 0c0 1.2-.3 1.7-1 1.7-.6 0-1-.5-1-1.7s.4-1.6 1-1.6c.7 0 1 .5 1 1.6zm-1.5 0c0 1 .2 1.4.6 1.4.4 0 .6-.4.6-1.4 0-1-.2-1.3-.6-1.3-.4 0-.6.3-.6 1.3zm4 .8c0 .5-.4.9-1 .9s-1-.3-1-.9c0-.4.2-.6.7-.8-.4-.2-.6-.5-.6-.8 0-.4.4-.8.9-.8s.9.3.9.8c0 .4-.2.6-.6.8.5.2.7.4.7.8zm-1.1-.7c-.4.2-.6.4-.6.7 0 .4.2.6.6.6.4 0 .6-.2.6-.6.1-.2 0-.4-.6-.7zm.2-.3c.4-.2.5-.4.5-.6 0-.3-.2-.5-.6-.5-.3 0-.6.2-.6.5 0 .2.2.4.7.6zm7.4-.5c.1-.6.5-.9 1-.9s.9.3.9.8c0 .4-.1.6-.7 1.1-.5.4-.7.7-.8 1h1.5v.3h-1.9v-.3c.2-.4.5-.8.9-1.2.5-.4.6-.6.6-.9 0-.3-.2-.5-.5-.5s-.5.2-.6.6h-.4zm4.4.7c0 1.2-.3 1.7-1 1.7-.6 0-1-.5-1-1.7s.4-1.6 1-1.6 1 .5 1 1.6zm-1.6 0c0 1 .2 1.4.6 1.4.4 0 .6-.4.6-1.4 0-1-.2-1.3-.6-1.3-.4 0-.6.3-.6 1.3zm4 0c0 1.2-.3 1.7-1 1.7-.6 0-1-.5-1-1.7s.4-1.6 1-1.6c.7 0 1 .5 1 1.6zm-1.5 0c0 1 .2 1.4.6 1.4.4 0 .6-.4.6-1.4 0-1-.2-1.3-.6-1.3-.4 0-.6.3-.6 1.3zm2.5 1.1c.1.2.2.3.4.3.4 0 .7-.4.7-1.3-.2.3-.4.4-.7.4-.5 0-.8-.4-.8-1 0-.7.4-1.1.9-1.1.6 0 1 .5 1 1.5 0 1.3-.4 1.8-1.1 1.8-.4 0-.6-.1-.8-.4l.4-.2zm.5-2.4c-.3 0-.6.3-.6.8 0 .4.2.7.5.7s.5-.1.6-.5c.1-.6-.1-1-.5-1zm7.5.6c.1-.6.5-.9 1-.9s.9.3.9.8c0 .4-.1.6-.7 1.1-.5.4-.7.7-.8 1h1.5v.3h-1.9v-.3c.2-.4.5-.8.9-1.2.5-.4.6-.6.6-.9 0-.3-.2-.5-.5-.5s-.5.2-.6.6h-.4zm4.4.7c0 1.2-.3 1.7-1 1.7-.6 0-1-.5-1-1.7s.4-1.6 1-1.6 1 .5 1 1.6zm-1.6 0c0 1 .2 1.4.6 1.4.4 0 .6-.4.6-1.4 0-1-.2-1.3-.6-1.3-.4 0-.6.3-.6 1.3zm3.3 1.3h.6v.3h-1.6v-.3h.6V171l-.6.3-.1-.3c.3-.1.5-.2.7-.4h.3v2.9zm3.2-1.3c0 1.2-.3 1.7-1 1.7-.6 0-1-.5-1-1.7s.4-1.6 1-1.6 1 .5 1 1.6zm-1.6 0c0 1 .2 1.4.6 1.4.4 0 .6-.4.6-1.4 0-1-.2-1.3-.6-1.3-.4 0-.6.3-.6 1.3zm8.2-.7c.1-.6.5-.9 1-.9s.9.3.9.8c0 .4-.1.6-.7 1.1-.5.4-.7.7-.8 1h1.5v.3h-1.9v-.3c.2-.4.5-.8.9-1.2.5-.4.6-.6.6-.9 0-.3-.2-.5-.5-.5s-.5.2-.6.6h-.4zm4.3.7c0 1.2-.3 1.7-1 1.7s-1-.5-1-1.7.4-1.6 1-1.6c.7 0 1 .5 1 1.6zm-1.6 0c0 1 .2 1.4.6 1.4.4 0 .6-.4.6-1.4 0-1-.2-1.3-.6-1.3-.4 0-.6.3-.6 1.3zm3.3 1.3h.6v.3h-1.6v-.3h.6V171l-.6.3-.1-.3c.3-.1.5-.2.7-.4h.3v2.9zm2.5 0h.6v.3H134v-.3h.6V171l-.6.3-.1-.3c.3-.1.5-.2.7-.4h.3v2.9zm7.3-2c.1-.6.5-.9 1-.9s.9.3.9.8c0 .4-.1.6-.7 1.1-.5.4-.7.7-.8 1h1.5v.3h-1.9v-.3c.2-.4.5-.8.9-1.2.5-.4.6-.6.6-.9 0-.3-.2-.5-.5-.5s-.5.2-.6.6h-.4zm4.3.7c0 1.2-.3 1.7-1 1.7s-1-.5-1-1.7.4-1.6 1-1.6c.7 0 1 .5 1 1.6zm-1.6 0c0 1 .2 1.4.6 1.4.4 0 .6-.4.6-1.4 0-1-.2-1.3-.6-1.3-.3 0-.6.3-.6 1.3zm3.3 1.3h.6v.3h-1.6v-.3h.6V171l-.6.3-.1-.3c.3-.1.5-.2.7-.4h.3v2.9zm1.3-2c.1-.6.5-.9 1-.9s.9.3.9.8c0 .4-.1.6-.7 1.1-.5.4-.7.7-.8 1h1.5v.3h-1.9v-.3c.2-.4.5-.8.9-1.2.5-.4.6-.6.6-.9 0-.3-.2-.5-.5-.5s-.5.2-.6.6h-.4zm8.5 0c.1-.6.5-.9 1-.9s.9.3.9.8c0 .4-.1.6-.7 1.1-.5.4-.7.7-.8 1h1.5v.3h-2v-.3c.2-.4.5-.8.9-1.2.5-.4.6-.6.6-.9 0-.3-.2-.5-.5-.5s-.5.2-.6.6h-.3zm4.3.7c0 1.2-.3 1.7-1 1.7s-1-.5-1-1.7.4-1.6 1-1.6c.7 0 1 .5 1 1.6zm-1.5 0c0 1 .2 1.4.6 1.4.4 0 .6-.4.6-1.4 0-1-.2-1.3-.6-1.3-.4 0-.6.3-.6 1.3zm3.2 1.3h.6v.3h-1.6v-.3h.6V171l-.6.3-.1-.3c.3-.1.5-.2.7-.4h.3v2.9zm1.3-2.3c.1-.4.5-.6.9-.6.5 0 .9.3.9.8 0 .4-.2.7-.6.7.4.1.7.4.7.8 0 .6-.4.9-1 .9-.5 0-.8-.2-1-.6l.4-.1c.1.3.3.5.6.5.4 0 .6-.2.6-.6 0-.4-.2-.7-.7-.7h-.2v-.3h.2c.5 0 .7-.2.7-.6 0-.3-.2-.5-.5-.5s-.5.1-.6.5l-.4-.2zm8.5.3c.1-.6.5-.9 1-.9s.9.3.9.8c0 .4-.1.6-.7 1.1-.5.4-.7.7-.8 1h1.5v.3h-1.9v-.3c.2-.4.5-.8.9-1.2.5-.4.6-.6.6-.9 0-.3-.2-.5-.5-.5s-.5.2-.6.6h-.4zm4.3.7c0 1.2-.3 1.7-1 1.7-.6 0-1-.5-1-1.7s.4-1.6 1-1.6c.7 0 1 .5 1 1.6zm-1.5 0c0 1 .2 1.4.6 1.4.4 0 .6-.4.6-1.4 0-1-.2-1.3-.6-1.3-.4 0-.6.3-.6 1.3zm3.2 1.3h.6v.3h-1.6v-.3h.6V171l-.6.3-.1-.3c.3-.1.5-.2.7-.4h.3v2.9zm2.8-.7h.4v.3h-.4v.7h-.3v-.7h-1.3v-.3l1.1-2.2h.5v2.2zm-.3-1.1v-.8h-.1c-.1.2-.2.5-.3.7l-.6 1.2h1v-1.1zm7.3-.2c.1-.6.5-.9 1-.9s.9.3.9.8c0 .4-.1.6-.7 1.1-.5.4-.7.7-.8 1h1.5v.3h-1.9v-.3c.2-.4.5-.8.9-1.2.5-.4.6-.6.6-.9 0-.3-.2-.5-.5-.5s-.5.2-.6.6h-.4zm4.3.7c0 1.2-.3 1.7-1 1.7-.6 0-1-.5-1-1.7s.4-1.6 1-1.6c.7 0 1 .5 1 1.6zm-1.5 0c0 1 .2 1.4.6 1.4.4 0 .6-.4.6-1.4 0-1-.2-1.3-.6-1.3-.4 0-.6.3-.6 1.3zm3.2 1.3h.6v.3h-1.6v-.3h.6V171l-.6.3-.1-.3c.3-.1.5-.2.7-.4h.3v2.9zm3.1-2.5h-1.3v1.2c.1-.2.3-.3.6-.3.5 0 .9.4.9 1 0 .7-.4 1.1-1 1.1-.5 0-.8-.2-.9-.6l.4-.1c.1.3.3.5.6.5.4 0 .6-.3.6-.8s-.2-.7-.6-.7c-.2 0-.5.1-.5.4h-.3l.1-1.8h1.6v.1zm6.7.5c.1-.6.5-.9 1-.9s.9.3.9.8c0 .4-.1.6-.7 1.1-.5.4-.7.7-.8 1h1.5v.3h-1.9v-.3c.2-.4.5-.8.9-1.2.5-.4.6-.6.6-.9 0-.3-.2-.5-.5-.5s-.5.2-.6.6h-.4zm4.3.7c0 1.2-.3 1.7-1 1.7-.6 0-1-.5-1-1.7s.4-1.6 1-1.6 1 .5 1 1.6zm-1.5 0c0 1 .2 1.4.6 1.4.4 0 .6-.4.6-1.4 0-1-.2-1.3-.6-1.3-.4 0-.6.3-.6 1.3zm3.2 1.3h.6v.3h-1.6v-.3h.6V171l-.6.3-.1-.3c.3-.1.5-.2.7-.4h.3v2.9zm2.8-2.3c-.1-.2-.2-.3-.4-.3-.5 0-.7.5-.7 1.3.2-.3.4-.4.7-.4.5 0 .8.4.8 1 0 .7-.4 1.1-.9 1.1-.6 0-1-.5-1-1.5 0-1.3.4-1.8 1.1-1.8.4 0 .6.2.8.5l-.4.1zm-.5 2.4c.3 0 .6-.3.6-.8s-.2-.7-.5-.7c-.2 0-.5.1-.6.5-.1.7.1 1 .5 1zm7.5-2.1c.1-.6.5-.9 1-.9s.9.3.9.8c0 .4-.1.6-.7 1.1-.5.4-.7.7-.8 1h1.5v.3h-1.9v-.3c.2-.4.5-.8.9-1.2.5-.4.6-.6.6-.9 0-.3-.2-.5-.5-.5s-.5.2-.6.6h-.4zm4.3.7c0 1.2-.3 1.7-1 1.7s-1-.5-1-1.7.4-1.6 1-1.6c.7 0 1 .5 1 1.6zm-1.5 0c0 1 .2 1.4.6 1.4.4 0 .6-.4.6-1.4 0-1-.2-1.3-.6-1.3-.4 0-.6.3-.6 1.3zm3.3 1.3h.6v.3h-1.6v-.3h.6V171l-.6.3-.1-.3c.3-.1.5-.2.7-.4h.3v2.9zm3.1-2.6c-.6.9-.8 1.8-.9 2.9h-.4c.1-1.2.4-2 1-2.9h-1.5v-.3h1.9v.3z"/>
</svg>
